<svg xmlns="http://www.w3.org/2000/svg">
<defs>
<font id="GTWalsheim" horiz-adv-x="1127" ><font-face
    font-family="GTWalsheim"
    units-per-em="2048"
    panose-1="2 0 5 3 2 0 0 2 0 3"
    ascent="2017"
    descent="-542"
    alphabetic="0" />
<missing-glyph horiz-adv-x="1482" d="M82 678Q82 703 84 733T90 790T101 835T119 854Q131 854 140 847T156 831T167 814T178 807Q180 807 182 853T197 968T242 1120T336 1271T496 1387T741 1434Q888 1434 985 1388T1145 1272T1240 1120T1285 969T1300 853T1305
807Q1311 807 1316 814T1327 830T1342 847T1364 854Q1374 854 1381 836T1393 791T1399 733T1401 678Q1401 662 1400 632T1394 574T1381 523T1360 500Q1337 500 1328 512T1317 528Q1292 401 1249 313T1151 167T1036 75T920 25T817 4T741 0Q712 0 665 4T563 24T448
75T332 167T232 314T166 530Q162 522 156 514Q146 500 123 500Q111 500 103 522T89 573T83 632T82 678ZM301 788Q321 761 348 741Q371 723 405 709T483 694Q534 694 568 714T625 760Q650 789 664 825Q654 839 637 854Q623 866 602 879T547 903Q563 889 575 868T588
819Q588 776 558 747T483 717Q438 717 409 746T379 819Q379 842 384 860T406 893Q377 883 357 866T324 831Q310 811 301 788ZM451 377Q463 318 500 272Q531 231 588 200T741 168Q837 168 893 199T981 272Q1018 317 1032 377Q1001 377 977 382T932 395Q942 411 948
431T954 473Q954 485 951 503T941 540T924 572T899 586Q872 586 872 559Q872 549 877 545Q891 531 895 516T899 473Q899 440 885 414Q850 430 819 444T741 459Q694 459 662 445T598 414Q584 441 584 473Q584 500 588 515T604 545Q610 549 610 559Q610 586 584 586Q570
586 560 573T542 541T532 504T528 473Q528 450 532 431T547 395Q527 387 503 382T451 377ZM817 825Q831 788 856 760Q879 735 912 715T999 694Q1042 694 1076 708T1133 741Q1160 761 1182 788Q1172 811 1157 834Q1145 852 1124 869T1073 897Q1104 868 1104 819Q1104
776 1074 747T999 717Q954 717 925 746T895 819Q895 837 902 858T926 893Q897 883 876 872T842 850Q826 838 817 825Z" />
<glyph unicode=" " glyph-name="space" horiz-adv-x="512" />
<glyph unicode="!" glyph-name="exclam" horiz-adv-x="632" d="M143 139Q143 174 156 206T193 261T248 298T315 311Q352 311 384 298T439 262T476 206T489 139Q489 104 476 73T440 18T384 -20T315 -35Q278 -35 248 -21T194 17T157 72T143 139ZM195 457V1434H438V457H195Z" />
<glyph unicode="&quot;" glyph-name="quotedbl" horiz-adv-x="796" d="M123 1264V1468H334V1264L281 954H176L123 1264ZM463 1264V1468H674V1264L621 954H516L463 1264Z" />
<glyph unicode="#" glyph-name="numbersign" horiz-adv-x="1124" d="M59 418V590H266L301 844H121V1016H326L383 1434H565L508 1016H717L774 1434H956L899 1016H1067V844H874L840 590H1006V418H815L756 0H575L633 418H424L365 0H184L242 418H59ZM449 590H657L692
844H483L449 590Z" />
<glyph unicode="$" glyph-name="dollar" horiz-adv-x="1314" d="M166 469H401Q401 328 479 252T680 176Q729 176 772 191T847 235T897 304T915 393Q915 448 894 485T839 546T765 587T688 616Q590 651 504 687T354 773T252 895T215 1075Q215 1151 241 1214T314
1327T422 1409T557 1456V1679H766V1458Q842 1442 905 1404T1016 1309T1089 1179T1116 1020H881Q881 1126 821 1191T666 1257Q578 1257 515 1212T451 1075Q451 1032 468 999T515 940T581 897T659 864Q743 833 830 800T989 716T1106 594T1151 420Q1151 324 1122 247T1040
114T918 23T766 -27V-246H557V-25Q475 -11 405 29T281 132T197 280T166 469Z" />
<glyph unicode="%" glyph-name="percent" horiz-adv-x="1945" d="M166 909V1169Q166 1226 186 1276T246 1366T340 1427T465 1450Q535 1450 590 1428T684 1366T744 1277T766 1169V909Q766 852 745 801T684 712T590 652T465 629Q395 629 340 651T246 712T187 801T166
909ZM346 909Q346 856 379 818T465 780Q520 780 553 818T586 909V1169Q586 1222 553 1260T465 1298Q412 1298 379 1261T346 1169V909ZM420 -2L1315 1540L1493 1438L598 -104L420 -2ZM1178 264V524Q1178 581 1198 631T1257 721T1351 782T1477 805Q1547 805 1602
783T1696 721T1756 632T1778 524V264Q1778 207 1757 156T1696 67T1602 7T1477 -16Q1407 -16 1352 6T1258 66T1199 155T1178 264ZM1358 264Q1358 211 1390 173T1477 135Q1532 135 1564 173T1597 264V524Q1597 577 1565 615T1477 653Q1424 653 1391 616T1358 524V264Z"
/>
<glyph unicode="&amp;" glyph-name="ampersand" horiz-adv-x="1226" d="M90 430Q90 491 107 538T155 624T228 692T319 750Q231 799 178 867T125 1065Q125 1153 162 1225T260 1350T403 1430T575 1458Q673 1458 755 1426T898 1334T992 1192T1026 1010H791Q791 1116
740 1181T565 1247Q475 1247 418 1202T360 1065Q360 1022 370 983T407 917T480 873T600 856V647Q448 647 387 579T326 403Q326 362 343 324T393 254T474 205T582 186Q631 186 677 205T759 262T817 353T840 477H692V686H1184V477H1075Q1075 356 1033 263T922 107T764
9T582 -25Q490 -25 402 6T244 95T132 238T90 430Z" />
<glyph unicode="&apos;" glyph-name="quotesingle" horiz-adv-x="456" d="M123 1264V1468H334V1264L281 954H176L123 1264Z" />
<glyph unicode="(" glyph-name="parenleft" horiz-adv-x="798" d="M215 0V1124Q215 1224 251 1315T352 1476T510 1586T717 1626V1415Q656 1415 607 1392T522 1328T469 1236T451 1124V0Q451 -59 469 -111T522 -204T606 -267T717 -291V-502Q602 -502 510 -462T353
-353T251 -193T215 0Z" />
<glyph unicode=")" glyph-name="parenright" horiz-adv-x="798" d="M82 -291Q143 -291 192 -268T276 -204T329 -112T348 0V1124Q348 1183 330 1235T277 1328T193 1391T82 1415V1626Q195 1626 288 1586T446 1477T548 1316T584 1124V0Q584 -102 548 -192T447 -352T288
-462T82 -502V-291Z" />
<glyph unicode="*" glyph-name="asterisk" horiz-adv-x="946" d="M82 1133L127 1268L406 1174L403 1468H547L541 1174L819 1268L864 1133L582 1044L760 809L643 725L473 967L303 725L186 809L365 1044L82 1133Z" />
<glyph unicode="+" glyph-name="plus" horiz-adv-x="1187" d="M180 483V682H481V997H705V682H1008V483H705V170H481V483H180Z" />
<glyph unicode="," glyph-name="comma" horiz-adv-x="595" d="M123 152Q123 222 171 269T287 317Q371 317 422 259T473 106Q473 12 450 -53T382 -160T275 -219T131 -238V-133Q184 -133 220 -122T281 -92Q304 -72 315 -49T330 0Q326 -4 314 -8T287 -12Q211 -12
167 36T123 152Z" />
<glyph unicode="-" glyph-name="hyphen" horiz-adv-x="602" d="M61 483V682H541V483H61Z" />
<glyph unicode="." glyph-name="period" horiz-adv-x="575" d="M123 152Q123 222 171 269T287 317Q357 317 405 269T453 152Q453 84 405 36T287 -12Q219 -12 171 36T123 152Z" />
<glyph unicode="/" glyph-name="slash" horiz-adv-x="927" d="M-2 -53L743 1679L948 1591L203 -141L-2 -53Z" />
<glyph unicode="0" glyph-name="zero" horiz-adv-x="1187" d="M90 477V956Q90 1056 126 1147T227 1308T385 1418T592 1458Q707 1458 800 1418T959 1309T1062 1148T1098 956V477Q1098 375 1062 285T960 125T800 15T592 -25Q477 -25 385 15T228 125T126 285T90 477ZM326
477Q326 418 344 366T397 273T481 210T592 186Q653 186 703 209T788 273T842 365T862 477V956Q862 1015 843 1067T789 1160T704 1223T592 1247Q531 1247 482 1224T397 1160T344 1068T326 956V477Z" />
<glyph unicode="1" glyph-name="one" horiz-adv-x="749" d="M61 1010V1196Q159 1196 221 1209T317 1250T364 1323T377 1434H600V0H356V1010H61Z" />
<glyph unicode="2" glyph-name="two" horiz-adv-x="1079" d="M96 0Q96 170 125 284T205 479T326 614T479 723Q526 752 576 782T668 851T735 937T762 1051Q762 1155 703 1201T555 1247Q463 1247 398 1191T332 1010H96Q96 1119 134 1202T236 1342T384 1428T557 1458Q649
1458 730 1432T870 1351T963 1216T997 1028Q997 930 950 852T840 716T712 616T612 551Q534 496 486 455T412 377T376 301T367 211H989V0H96Z" />
<glyph unicode="3" glyph-name="three" horiz-adv-x="1165" d="M68 479H303Q303 409 324 355T383 263T470 206T578 186Q633 186 678 204T753 254T800 326T817 410Q817 461 804 504T761 578T682 628T559 647H463V856H561Q688 856 735 914T782 1065Q782 1157 726
1202T580 1247Q453 1247 403 1182T352 1010H117Q117 1110 149 1192T241 1333T383 1425T563 1458Q655 1458 738 1431T882 1351T981 1226T1018 1065Q1018 942 964 864T823 750Q921 711 987 630T1053 412Q1053 314 1014 234T910 97T755 7T567 -25Q469 -25 379 9T221
107T110 265T68 479Z" />
<glyph unicode="4" glyph-name="four" horiz-adv-x="1144" d="M133 430V1434H369V641H655V1071H891V641H1087V430H891V0H655V430H133Z" />
<glyph unicode="5" glyph-name="five" horiz-adv-x="1241" d="M131 477H367Q367 418 385 366T438 273T522 210T633 186Q694 186 744 209T830 273T884 365T903 477Q903 536 885 588T831 681T745 744T633 768Q555 768 494 730T391 610H156V1434H1026V1223H367V825Q390
866 426 895T506 942T593 969T674 977Q789 977 876 937T1021 829T1109 669T1139 477Q1139 375 1103 285T1001 125T841 15T633 -25Q518 -25 426 15T269 125T167 285T131 477Z" />
<glyph unicode="6" glyph-name="six" horiz-adv-x="1165" d="M76 477Q76 559 100 634T166 774L578 1434H848L547 977Q557 979 578 979Q693 979 786 939T945 830T1047 669T1083 477Q1083 375 1048 285T946 125T786 15T578 -25Q463 -25 371 15T213 125T112 285T76
477ZM311 477Q311 418 329 366T383 273T467 210T578 186Q639 186 689 209T774 273T828 365T848 477Q848 536 829 588T774 681T689 744T578 768Q517 768 468 745T383 681T330 589T311 477Z" />
<glyph unicode="7" glyph-name="seven" horiz-adv-x="980" d="M78 1223V1434H991L381 0H131L659 1223H78Z" />
<glyph unicode="8" glyph-name="eight" horiz-adv-x="1206" d="M113 414Q113 465 125 517T162 615T227 698T322 754Q226 797 187 881T147 1051Q147 1133 178 1207T268 1337T412 1425T604 1458Q710 1458 795 1426T939 1337T1028 1207T1059 1051Q1059 965 1020 881T885
754Q940 736 979 699T1043 615T1081 515T1094 414Q1094 328 1060 249T964 109T810 11T604 -25Q489 -25 398 10T244 105T147 245T113 414ZM348 414Q348 367 365 326T416 254T497 205T604 186Q663 186 710 204T790 255T840 328T858 414Q858 457 842 499T793 572T713
623T604 643Q543 643 495 625T414 575T365 501T348 414ZM383 1040Q383 997 398 960T441 893T510 848T604 831Q655 831 696 848T765 895T808 961T823 1040Q823 1081 808 1118T765 1183T696 1229T604 1247Q551 1247 510 1231T442 1186T399 1119T383 1040Z" />
<glyph unicode="9" glyph-name="nine" horiz-adv-x="1165" d="M82 956Q82 1056 118 1147T219 1308T379 1418T588 1458Q701 1458 794 1418T952 1309T1054 1148T1090 956Q1090 872 1064 799T997 659L588 0H317L618 455Q495 455 397 492T229 597T120 756T82 956ZM317
956Q317 897 336 845T391 753T476 690T588 666Q649 666 698 689T782 753T835 845T854 956Q854 1015 836 1067T783 1160T699 1223T588 1247Q527 1247 477 1224T391 1160T337 1068T317 956Z" />
<glyph unicode=":" glyph-name="colon" horiz-adv-x="575" d="M123 152Q123 222 171 269T287 317Q357 317 405 269T453 152Q453 84 405 36T287 -12Q219 -12 171 36T123 152ZM123 825Q123 895 171 943T287 991Q357 991 405 943T453 825Q453 757 405 710T287 662Q219
662 171 709T123 825Z" />
<glyph unicode=";" glyph-name="semicolon" horiz-adv-x="595" d="M123 152Q123 222 171 269T287 317Q371 317 422 259T473 106Q473 12 450 -53T382 -160T275 -219T131 -238V-133Q184 -133 220 -122T281 -92Q304 -72 315 -49T330 0Q326 -4 314 -8T287 -12Q211
-12 167 36T123 152ZM123 825Q123 895 171 943T287 991Q357 991 405 943T453 825Q453 757 405 710T287 662Q219 662 171 709T123 825Z" />
<glyph unicode="&lt;" glyph-name="less" horiz-adv-x="1187" d="M76 502V659L1114 1020V809L406 582L1114 352V141L76 502Z" />
<glyph unicode="=" glyph-name="equal" horiz-adv-x="1187" d="M180 322V520H1008V322H180ZM180 641V840H1008V641H180Z" />
<glyph unicode="&gt;" glyph-name="greater" horiz-adv-x="1187" d="M74 141V352L782 582L74 809V1020L1112 659V502L74 141Z" />
<glyph unicode="?" glyph-name="question" horiz-adv-x="1046" d="M49 1010Q49 1119 86 1202T184 1342T328 1428T500 1458Q592 1458 674 1430T817 1349T914 1222T950 1055Q950 983 928 927T872 826T800 750T733 692Q682 651 653 622T608 560T587 487T582 385H356Q356
453 362 508T386 610T434 699T516 778Q547 801 581 828T646 890T695 965T715 1055Q715 1153 655 1200T500 1247Q457 1247 418 1234T349 1191T302 1116T285 1010H49ZM297 139Q297 174 310 206T347 261T401 298T469 311Q506 311 537 298T592 262T629 206T643 139Q643
104 630 73T593 18T538 -20T469 -35Q432 -35 402 -21T348 17T311 72T297 139Z" />
<glyph unicode="@" glyph-name="at" horiz-adv-x="1697" d="M41 422Q41 615 105 770T278 1033T530 1199T834 1257Q1029 1257 1189 1207T1465 1064T1644 838T1708 539Q1708 379 1684 265T1612 77T1498 -29T1341 -63Q1232 -63 1169 -5T1077 131Q1040 72 970 37T829
2Q737 2 662 36T532 127T448 261T418 422Q418 508 447 583T531 717T661 810T829 844Q899 844 969 810T1077 715V823H1264V289Q1264 197 1290 151T1376 104Q1403 104 1428 122T1474 189T1507 322T1520 539Q1520 664 1470 766T1328 940T1111 1051T834 1090Q713 1090
603 1044T409 911T277 702T227 422Q227 297 271 178T403 -33T624 -181T932 -238Q989 -238 1055 -232T1194 -210T1338 -170T1481 -106L1571 -252Q1491 -297 1407 -326T1240 -373T1078 -398T932 -406Q709 -406 542 -335T264 -149T97 115T41 422ZM606 422Q606 371
622 325T669 245T742 191T838 170Q893 170 937 190T1011 245T1059 325T1077 422Q1077 473 1060 520T1012 601T937 655T838 676Q785 676 743 656T670 601T623 520T606 422Z" />
<glyph unicode="A" glyph-name="A" horiz-adv-x="1169" d="M6 0L502 1434H668L1163 0H915L854 182H315L254 0H6ZM387 393H782L586 1042L387 393Z" />
<glyph unicode="B" glyph-name="B" horiz-adv-x="1224" d="M150 0V1434H639Q786 1434 876 1391T1017 1286T1083 1152T1100 1026Q1100 952 1079 899T1023 810T949 754T872 725Q903 717 945 698T1024 642T1086 551T1112 416Q1112 361 1096 288T1029 152T889 44T651
0H150ZM385 211H651Q723 211 767 232T835 285T868 352T877 416Q877 443 868 478T833 546T764 599T653 621H385V211ZM385 831H639Q711 831 755 851T823 902T856 965T864 1026Q864 1053 856 1086T824 1151T755 1202T639 1223H385V831Z" />
<glyph unicode="C" glyph-name="C" horiz-adv-x="1587" d="M78 719Q78 864 128 999T273 1239T503 1405T807 1468Q967 1468 1090 1424T1302 1306T1443 1130T1511 911H1264Q1252 985 1216 1048T1126 1158T999 1230T838 1257Q715 1257 618 1212T455 1093T354 921T319
719Q319 608 355 510T459 337T629 219T862 176Q923 176 986 197T1102 257T1195 347T1253 461H1511Q1486 357 1427 267T1280 109T1078 3T831 -35Q655 -35 516 26T280 191T130 431T78 719Z" />
<glyph unicode="D" glyph-name="D" horiz-adv-x="1435" d="M150 0V1434H614Q792 1434 930 1373T1164 1211T1309 981T1358 717Q1358 582 1309 453T1165 224T931 62T614 0H150ZM385 211H614Q733 211 827 254T985 367T1082 529T1116 717Q1116 813 1083 904T986 1066T828
1180T614 1223H385V211Z" />
<glyph unicode="E" glyph-name="E" horiz-adv-x="1116" d="M150 0V1434H977V1223H385V817H977V606H385V211H977V0H150Z" />
<glyph unicode="F" glyph-name="F" horiz-adv-x="1101" d="M150 0V1434H977V1223H385V768H977V557H385V0H150Z" />
<glyph unicode="G" glyph-name="G" horiz-adv-x="1716" d="M78 717Q78 862 129 998T276 1239T509 1405T815 1468Q942 1468 1049 1432T1238 1332T1368 1183T1425 1004H1188Q1178 1057 1147 1103T1067 1184T954 1238T815 1257Q700 1257 608 1212T452 1093T353 920T319
717Q319 613 352 515T450 341T614 221T846 176Q938 176 1010 202T1135 275T1220 382T1264 508H989V719H1671V508H1513Q1488 387 1432 288T1289 117T1084 5T815 -35Q639 -35 502 27T271 194T127 435T78 717Z" />
<glyph unicode="H" glyph-name="H" horiz-adv-x="1361" d="M150 0V1434H385V817H977V1434H1212V0H977V606H385V0H150Z" />
<glyph unicode="I" glyph-name="I" horiz-adv-x="542" d="M150 0V1434H393V0H150Z" />
<glyph unicode="J" glyph-name="J" horiz-adv-x="1097" d="M25 467H260Q260 338 316 257T489 176Q606 176 664 256T723 465V1434H958V465Q958 361 928 270T837 111T689 4T489 -35Q378 -35 292 4T146 111T56 271T25 467Z" />
<glyph unicode="K" glyph-name="K" horiz-adv-x="1243" d="M150 0V1434H385V803L918 1434H1212L606 717L1212 0H918L385 629V0H150Z" />
<glyph unicode="L" glyph-name="L" horiz-adv-x="878" d="M150 0V1434H385V211H827V0H150Z" />
<glyph unicode="M" glyph-name="M" horiz-adv-x="1665" d="M150 0V1434H375L834 367L1290 1434H1516V0H1280V887L922 0H743L385 887V0H150Z" />
<glyph unicode="N" glyph-name="N" horiz-adv-x="1359" d="M150 0V1434H408L975 414V1434H1210V0H952L385 1020V0H150Z" />
<glyph unicode="O" glyph-name="O" horiz-adv-x="1638" d="M78 717Q78 862 129 998T275 1239T509 1405T819 1468Q991 1468 1129 1406T1363 1239T1509 999T1561 717Q1561 572 1510 436T1363 195T1130 28T819 -35Q647 -35 509 27T276 194T129 435T78 717ZM326 717Q326
613 359 516T457 342T613 221T819 176Q934 176 1025 221T1180 342T1279 515T1313 717Q1313 821 1279 918T1181 1091T1025 1212T819 1257Q704 1257 613 1212T458 1092T360 919T326 717Z" />
<glyph unicode="P" glyph-name="P" horiz-adv-x="1220" d="M150 0V1434H664Q779 1434 872 1394T1031 1284T1133 1123T1169 932Q1169 830 1134 740T1032 580T872 470T664 430H385V0H150ZM385 641H664Q725 641 775 664T860 728T914 820T934 932Q934 991 915 1043T860
1136T775 1199T664 1223H385V641Z" />
<glyph unicode="Q" glyph-name="Q" horiz-adv-x="1638" d="M78 717Q78 862 129 998T275 1239T509 1405T819 1468Q991 1468 1129 1406T1363 1239T1509 999T1561 717Q1561 600 1528 490T1433 285T1279 118T1073 6L1196 -166L989 -270L817 -35Q645 -35 508 28T276
196T129 436T78 717ZM326 717Q326 613 359 516T457 342T613 221T819 176Q934 176 1025 221T1180 342T1279 515T1313 717Q1313 821 1279 918T1181 1091T1025 1212T819 1257Q704 1257 613 1212T458 1092T360 919T326 717Z" />
<glyph unicode="R" glyph-name="R" horiz-adv-x="1247" d="M150 0V1434H664Q779 1434 872 1394T1031 1284T1133 1123T1169 932Q1169 854 1149 784T1089 653T993 544T866 467L1151 0H883L621 430H385V0H150ZM385 641H664Q725 641 775 664T860 728T914 820T934 932Q934
991 915 1043T860 1136T775 1199T664 1223H385V641Z" />
<glyph unicode="S" glyph-name="S" horiz-adv-x="1165" d="M86 469H322Q322 328 399 252T600 176Q649 176 692 191T767 234T817 301T836 389Q836 444 815 481T759 543T685 586T608 616Q510 651 424 687T274 773T172 895T135 1075Q135 1163 171 1236T267 1361T408
1440T580 1468Q676 1468 760 1436T905 1344T1001 1202T1036 1020H801Q801 1126 744 1191T586 1257Q498 1257 435 1212T371 1075Q371 1032 388 999T435 940T502 897T580 864Q664 833 751 799T909 713T1026 590T1071 416Q1071 305 1032 221T926 80T769 -6T580 -35Q482
-35 393 -1T236 97T127 255T86 469Z" />
<glyph unicode="T" glyph-name="T" horiz-adv-x="987" d="M20 1223V1434H967V1223H610V0H375V1223H20Z" />
<glyph unicode="U" glyph-name="U" horiz-adv-x="1310" d="M139 479V1434H375V479Q375 418 394 363T450 266T538 201T653 176Q716 176 768 200T858 266T915 362T936 479V1434H1171V479Q1171 375 1135 282T1031 118T868 6T653 -35Q536 -35 442 6T281 117T176 281T139 479Z" />
<glyph unicode="V" glyph-name="V" horiz-adv-x="1165" d="M4 1434H252L584 391L913 1434H1161L666 0H500L4 1434Z" />
<glyph unicode="W" glyph-name="W" horiz-adv-x="2013" d="M10 1434H258L588 412L920 1434H1094L1425 412L1755 1434H2003L1507 0H1337L1008 1022L676 0H506L10 1434Z" />
<glyph unicode="X" glyph-name="X" horiz-adv-x="1150" d="M16 0L442 717L16 1434H283L575 920L868 1434H1135L709 717L1135 0H868L575 512L283 0H16Z" />
<glyph unicode="Y" glyph-name="Y" horiz-adv-x="1232" d="M23 1434H295L678 817L985 1434H1243L532 0H274L559 573L23 1434Z" />
<glyph unicode="Z" glyph-name="Z" horiz-adv-x="1181" d="M27 0L770 1223H70V1434H1161L418 211H1157V0H27Z" />
<glyph unicode="[" glyph-name="bracketleft" horiz-adv-x="727" d="M150 -479V1628H563V1430H373V-283H563V-479H150Z" />
<glyph unicode="\" glyph-name="backslash" horiz-adv-x="927" d="M-2 1591L203 1679L948 -53L743 -141L-2 1591Z" />
<glyph unicode="]" glyph-name="bracketright" horiz-adv-x="727" d="M164 -283H354V1427H164V1626H578V-479H164V-283Z" />
<glyph unicode="^" glyph-name="asciicircum" horiz-adv-x="1327" d="M123 662L582 1536H737L1204 662H952L662 1253L367 662H123Z" />
<glyph unicode="_" glyph-name="underscore" horiz-adv-x="1146" d="M61 -102H1085V-256H61V-102Z" />
<glyph unicode="`" glyph-name="grave" horiz-adv-x="1173" d="M244 1335L350 1509L860 1229L754 1055L244 1335Z" />
<glyph unicode="a" glyph-name="a" horiz-adv-x="1234" d="M78 477Q78 577 114 668T214 829T369 939T567 979Q651 979 734 938T862 825V954H1085V0H862V129Q817 57 734 16T567 -25Q458 -25 369 15T215 125T114 285T78 477ZM301 477Q301 416 320 361T377 264T465
199T580 174Q643 174 695 198T784 264T841 360T862 477Q862 538 842 593T785 690T696 755T580 780Q517 780 466 756T377 690T321 594T301 477Z" />
<glyph unicode="b" glyph-name="b" horiz-adv-x="1239" d="M150 0V1434H373V825Q418 897 501 938T668 979Q777 979 866 939T1020 830T1121 669T1157 477Q1157 375 1121 285T1021 125T866 15T668 -25Q584 -25 501 16T373 129V0H150ZM373 477Q373 416 392 361T448
264T537 199T655 174Q718 174 769 198T858 264T914 360T934 477Q934 538 915 593T858 690T770 755T655 780Q589 780 537 756T449 690T393 594T373 477Z" />
<glyph unicode="c" glyph-name="c" horiz-adv-x="1093" d="M82 477Q82 573 112 664T203 825T352 937T557 979Q674 979 757 946T894 861T976 743T1010 606H786Q776 684 726 732T561 780Q495 780 448 756T369 689T321 593T305 477Q305 416 320 361T368 264T452 199T575
174Q673 174 719 215T788 328H1012Q1000 254 967 190T878 77T743 2T559 -25Q442 -25 353 17T204 129T113 289T82 477Z" />
<glyph unicode="d" glyph-name="d" horiz-adv-x="1234" d="M78 477Q78 577 114 668T214 829T369 939T567 979Q651 979 734 938T862 825V1434H1085V0H862V129Q817 57 734 16T567 -25Q458 -25 369 15T215 125T114 285T78 477ZM301 477Q301 416 320 361T377 264T465
199T580 174Q643 174 695 198T784 264T841 360T862 477Q862 538 842 593T785 690T696 755T580 780Q517 780 466 756T377 690T321 594T301 477Z" />
<glyph unicode="e" glyph-name="e" horiz-adv-x="1087" d="M82 477Q82 583 113 675T204 835T352 941T553 979Q645 979 726 946T867 855T961 719T995 549Q995 524 994 491T985 410H309Q309 359 323 314T367 235T444 182T559 162Q606 162 640 172T697 198T736 238T762
287H987Q975 226 941 170T853 70T725 1T559 -25Q438 -25 349 17T201 129T112 289T82 477ZM311 575H778Q778 675 714 734T547 793Q449 793 380 738T311 575Z" />
<glyph unicode="f" glyph-name="f" horiz-adv-x="735" d="M41 768V954H236V1073Q236 1210 273 1285T365 1396T479 1439T580 1446Q623 1446 656 1439T709 1421V1233Q686 1239 662 1243T610 1247Q583 1247 557 1245T509 1229T473 1184T459 1098V954H709V768H459V0H236V768H41Z"
/>
<glyph unicode="g" glyph-name="g" horiz-adv-x="1228" d="M78 477Q78 577 114 668T214 829T369 939T567 979Q651 979 734 938T862 825V954H1085V-47Q1085 -168 1051 -254T950 -395T789 -476T575 -502Q456 -502 369 -468T222 -379T130 -253T94 -109H319Q327 -187
391 -245T575 -303Q710 -303 786 -243T862 -47V129Q817 57 734 16T567 -25Q458 -25 369 15T215 125T114 285T78 477ZM301 477Q301 416 320 361T377 264T465 199T580 174Q643 174 695 198T784 264T841 360T862 477Q862 538 842 593T785 690T696 755T580 780Q517
780 466 756T377 690T321 594T301 477Z" />
<glyph unicode="h" glyph-name="h" horiz-adv-x="1165" d="M150 0V1434H373V821Q418 899 498 939T684 979Q788 979 859 944T971 850Q1006 797 1019 732T1032 567V0H809V494Q809 555 799 608T765 699T702 759T602 782Q485 782 429 699T373 494V0H150Z" />
<glyph unicode="i" glyph-name="i" horiz-adv-x="612" d="M141 1303Q141 1373 189 1420T305 1468Q375 1468 423 1420T471 1303Q471 1235 423 1187T305 1139Q237 1139 189 1187T141 1303ZM195 0V954H418V0H195Z" />
<glyph unicode="j" glyph-name="j" horiz-adv-x="604" d="M41 -293Q74 -301 89 -303T119 -305Q154 -305 172 -284T190 -209V954H414V-223Q414 -303 397 -356T351 -441T286 -486T213 -500Q160 -500 112 -494T41 -477V-293ZM137 1303Q137 1373 185 1420T301 1468Q371
1468 419 1420T467 1303Q467 1235 419 1187T301 1139Q233 1139 185 1187T137 1303Z" />
<glyph unicode="k" glyph-name="k" horiz-adv-x="1021" d="M150 0V1434H373V532L723 954H1001L604 477L1001 0H723L373 420V0H150Z" />
<glyph unicode="l" glyph-name="l" horiz-adv-x="522" d="M150 0V1434H373V0H150Z" />
<glyph unicode="m" glyph-name="m" horiz-adv-x="1712" d="M150 0V954H373V821Q404 887 474 933T639 979Q770 979 839 930T940 809Q975 881 1052 930T1233 979Q1339 979 1407 945T1512 858T1563 739T1577 604V0H1354V535Q1354 650 1312 716T1176 782Q1133 782
1097 768T1034 719T991 628T975 485V0H752V537Q752 652 712 717T578 782Q535 782 498 768T434 719T390 628T373 485V0H150Z" />
<glyph unicode="n" glyph-name="n" horiz-adv-x="1165" d="M150 0V954H373V821Q418 899 498 939T684 979Q788 979 859 944T971 850Q1006 797 1019 732T1032 567V0H809V494Q809 555 799 608T765 699T702 759T602 782Q485 782 429 699T373 494V0H150Z" />
<glyph unicode="o" glyph-name="o" horiz-adv-x="1163" d="M78 477Q78 577 114 668T215 829T373 939T580 979Q695 979 788 939T947 830T1049 669T1085 477Q1085 375 1050 285T948 125T788 15T580 -25Q465 -25 373 15T216 125T114 285T78 477ZM301 477Q301 416
320 361T377 264T465 199T580 174Q643 174 695 198T784 264T841 360T862 477Q862 538 842 593T785 690T696 755T580 780Q517 780 466 756T377 690T321 594T301 477Z" />
<glyph unicode="p" glyph-name="p" horiz-adv-x="1239" d="M150 -479V954H373V825Q418 897 501 938T668 979Q777 979 866 939T1020 830T1121 669T1157 477Q1157 375 1121 285T1021 125T866 15T668 -25Q584 -25 501 16T373 129V-479H150ZM373 477Q373 416 392 361T448
264T537 199T655 174Q718 174 769 198T858 264T914 360T934 477Q934 538 915 593T858 690T770 755T655 780Q589 780 537 756T449 690T393 594T373 477Z" />
<glyph unicode="q" glyph-name="q" horiz-adv-x="1239" d="M82 477Q82 577 118 668T218 829T373 939T571 979Q655 979 738 938T866 825V954H1090V-479H866V129Q821 57 738 16T571 -25Q462 -25 373 15T219 125T118 285T82 477ZM305 477Q305 416 324 361T381 264T469
199T584 174Q647 174 699 198T788 264T845 360T866 477Q866 538 846 593T789 690T700 755T584 780Q521 780 470 756T381 690T325 594T305 477Z" />
<glyph unicode="r" glyph-name="r" horiz-adv-x="774" d="M150 0V954H373V801Q389 834 419 863T488 916T574 953T668 967Q721 967 756 952V748Q729 754 712 756T668 758Q525 758 449 675T373 412V0H150Z" />
<glyph unicode="s" glyph-name="s" horiz-adv-x="929" d="M74 322H291Q291 228 343 190T475 152Q541 152 586 176T631 262Q631 295 613 315T557 353T465 389T334 436Q285 454 243 476T170 526T123 598T106 702Q106 770 135 821T213 908T326 961T465 979Q541 979
607 955T723 887T800 785T829 655H612Q612 723 577 763T459 803Q402 803 362 777T322 698Q322 667 338 648T387 614T469 581T584 539Q633 521 680 500T764 449T822 375T844 266Q844 192 814 137T732 46T611 -7T463 -25Q385 -25 316 -3T192 64T106 173T74 322Z"
/>
<glyph unicode="t" glyph-name="t" horiz-adv-x="718" d="M41 768V954H203V1243H426V954H645V768H426V375Q426 314 435 277T462 221T506 195T565 188Q592 188 627 190T678 197V0Q651 -4 606 -8T512 -12Q471 -12 418 -5T317 35T236 135T203 324V768H41Z" />
<glyph unicode="u" glyph-name="u" horiz-adv-x="1165" d="M133 387V954H356V461Q356 400 366 347T400 255T464 195T563 172Q680 172 736 255T793 461V954H1016V0H793V133Q748 55 668 15T481 -25Q377 -25 307 10T195 104Q160 157 147 223T133 387Z" />
<glyph unicode="v" glyph-name="v" horiz-adv-x="1011" d="M2 954H242L504 319L770 954H1010L578 0H428L2 954Z" />
<glyph unicode="w" glyph-name="w" horiz-adv-x="1542" d="M0 954H240L446 350L662 954H881L1096 350L1303 954H1542L1171 0H1022L772 713L520 0H371L0 954Z" />
<glyph unicode="x" glyph-name="x" horiz-adv-x="913" d="M16 0L328 481L23 954H281L457 655L633 954H891L586 481L897 0H639L457 307L274 0H16Z" />
<glyph unicode="y" glyph-name="y" horiz-adv-x="1183" d="M133 -109H350Q352 -189 406 -246T578 -303Q699 -303 758 -245T817 -45V133Q772 55 692 15T506 -25Q402 -25 331 10T219 104Q184 157 171 223T158 387V954H381V461Q381 400 391 347T425 255T488 195T588
172Q705 172 761 255T817 461V954H1040V-45Q1040 -289 913 -395T549 -502Q457 -502 381 -470T250 -384T164 -258T133 -109Z" />
<glyph unicode="z" glyph-name="z" horiz-adv-x="897" d="M45 0L498 756H57V954H868L418 199H868V0H45Z" />
<glyph unicode="{" glyph-name="braceleft" horiz-adv-x="942" d="M164 457V639Q189 639 221 648T282 678T331 733T352 815V1341Q352 1413 377 1466T443 1555T533 1608T633 1626H778V1458H688Q651 1458 630 1444T596 1407T581 1358T578 1305V784Q578 718 554 675T499
605T432 566T375 551Q398 547 432 536T498 498T554 423T578 297V-158Q578 -183 581 -210T596 -260T629 -297T688 -311H778V-479H633Q584 -479 534 -462T443 -410T378 -321T352 -195V266Q352 319 332 355T283 413T221 446T164 457Z" />
<glyph unicode="|" glyph-name="bar" horiz-adv-x="522" d="M150 -479V1626H373V-479H150Z" />
<glyph unicode="}" glyph-name="braceright" horiz-adv-x="942" d="M164 -311H254Q291 -311 312 -297T346 -261T361 -210T365 -158V297Q365 375 387 423T442 497T510 535T567 551Q544 553 510 565T443 604T388 675T365 784V1305Q365 1332 362 1358T346 1407T313
1444T254 1458H164V1626H309Q358 1626 408 1609T499 1556T564 1467T590 1341V815Q590 766 610 733T659 679T721 648T778 639V457Q753 457 721 447T660 414T611 355T590 266V-195Q590 -267 565 -321T499 -409T409 -461T309 -479H164V-311Z" />
<glyph unicode="~" glyph-name="asciitilde" horiz-adv-x="1079" d="M82 395V586Q133 654 194 680T309 707Q364 707 425 688T551 641Q610 616 669 592T772 567Q842 567 899 603T997 680V489Q946 421 885 395T770 369Q711 369 657 388T549 436Q496 465 435 486T299
508Q236 508 180 472T82 395Z" />
</font>
</defs>
</svg>
