<?xml version="1.0" encoding="utf-8"?>

<!-- Generator: Adobe Illustrator 17.1.0, SVG Export Plug-In . SVG Version: 6.00 Build 0)  -->

<!DOCTYPE svg PUBLIC "-//W3C//DTD SVG 1.1//EN" "http://www.w3.org/Graphics/SVG/1.1/DTD/svg11.dtd">

<svg version="1.1" id="Layer_1" xmlns="http://www.w3.org/2000/svg" xmlns:xlink="http://www.w3.org/1999/xlink" x="0px" y="0px"

	 viewBox="0 0 173 39" enable-background="new 0 0 173 39" xml:space="preserve">

<g>

	<path fill="#FFFFFF" d="M147.918,12.215h0.613c2.075,0,3.113,0.932,3.113,2.795v8.946c0,1.878-1.037,2.818-3.113,2.818h-0.637

		l0.024,0.406H167V20.38h-0.454c-0.228,0.705-0.461,1.328-0.698,1.871c-0.238,0.543-0.487,1.006-0.748,1.386

		c-0.262,0.382-0.564,0.767-0.906,1.156c-0.572,0.624-1.247,1.11-2.023,1.458c-0.776,0.35-1.601,0.523-2.476,0.523h-4.436V15.01

		c0-0.953,0.252-1.658,0.759-2.112c0.507-0.455,1.287-0.683,2.341-0.683h1.238v-0.407h-11.681V12.215z M121.82,12.215h0.698

		c2.075,0,3.113,0.932,3.113,2.795v7.57c0,1.549,0.67,2.737,2.01,3.566c0.711,0.434,1.61,0.767,2.697,1.002

		c1.086,0.234,2.295,0.352,3.627,0.352c1.806,0,3.362-0.22,4.67-0.66c0.621-0.205,1.206-0.543,1.753-1.012

		c0.989-0.865,1.483-2.112,1.483-3.742v-6.129c0-0.712,0.122-1.33,0.368-1.855c0.245-0.524,0.6-0.944,1.066-1.26

		c0.318-0.205,0.629-0.352,0.931-0.44c0.302-0.088,0.711-0.151,1.226-0.187v-0.407h-8.31v0.407c0.678,0.014,1.197,0.059,1.557,0.132

		c0.359,0.074,0.702,0.202,1.029,0.386c1.143,0.631,1.716,1.826,1.716,3.587v5.503c0,1.613-0.486,2.868-1.459,3.763

		c-0.53,0.47-1.246,0.838-2.144,1.106c-0.899,0.268-1.867,0.402-2.905,0.402c-1.185,0-2.206-0.173-3.064-0.517

		c-0.858-0.345-1.516-0.836-1.974-1.475c-0.458-0.638-0.686-1.401-0.686-2.289V15.01c0-0.946,0.257-1.649,0.772-2.107

		c0.515-0.459,1.295-0.688,2.341-0.688h1.361v-0.407H121.82V12.215z M111.042,12.215c1.013,0,1.918,0.128,2.715,0.385

		c0.797,0.258,1.487,0.648,2.071,1.172c0.583,0.524,1.08,1.194,1.489,2.008c0.139,0.257,0.282,0.624,0.429,1.1

		c0.147,0.477,0.282,1.002,0.404,1.573h0.404v-6.646H99.827v0.407h0.429c1.062,0,1.847,0.228,2.353,0.683

		c0.507,0.455,0.76,1.159,0.76,2.112v8.946c0,0.947-0.255,1.649-0.766,2.108c-0.511,0.458-1.293,0.688-2.347,0.688h-0.429v0.429

		h11.349v-0.429h-1.091c-1.045,0-1.824-0.23-2.335-0.688c-0.51-0.459-0.766-1.161-0.766-2.108v-4.666h0.845

		c1.3,0,2.296,0.386,2.99,1.156c0.327,0.352,0.584,0.752,0.773,1.2c0.188,0.448,0.347,1.052,0.477,1.815h0.454v-8.814h-0.429

		c-0.279,1.489-0.736,2.567-1.372,3.235c-0.638,0.668-1.525,1.001-2.66,1.001h-1.078v-6.668H111.042z M73.325,27.181h10.761v-0.429

		h-0.379c-1.03,0-1.806-0.232-2.329-0.693c-0.523-0.463-0.784-1.163-0.784-2.102v-4.368h9.217v4.368

		c0,0.947-0.256,1.649-0.766,2.108c-0.511,0.458-1.293,0.688-2.347,0.688h-0.355v0.429H97.04v-0.429h-0.503

		c-1.03,0-1.806-0.232-2.329-0.693c-0.523-0.463-0.785-1.163-0.785-2.102V15.01c0-0.946,0.257-1.649,0.773-2.107

		c0.514-0.459,1.294-0.688,2.341-0.688h0.503v-0.407H86.341v0.407h0.355c1.062,0,1.846,0.228,2.353,0.683

		c0.506,0.455,0.76,1.159,0.76,2.112v4.127h-9.217V15.01c0-0.946,0.255-1.649,0.766-2.107c0.511-0.459,1.293-0.688,2.348-0.688

		h0.379v-0.407H73.288v0.407h0.588c0.981,0,1.716,0.195,2.206,0.583c0.27,0.191,0.47,0.424,0.601,0.699

		c0.13,0.275,0.233,0.647,0.306,1.117v2.383v3.263v2.223v1.475c0,0.947-0.255,1.649-0.766,2.108

		c-0.51,0.458-1.293,0.688-2.347,0.688h-0.552V27.181z M67.278,13.371c-0.254,0-0.731-0.158-1.434-0.473

		c-2.002-0.932-3.934-1.398-5.797-1.398c-1.234,0-2.358,0.191-3.37,0.572c-1.013,0.382-1.801,0.912-2.366,1.591

		c-0.564,0.678-0.845,1.443-0.845,2.294c0,0.704,0.253,1.349,0.76,1.937c0.343,0.418,0.749,0.763,1.22,1.034

		c0.47,0.272,1.117,0.543,1.943,0.814c0.735,0.258,2.059,0.616,3.971,1.079l1.226,0.297c1.005,0.242,1.795,0.451,2.371,0.627

		c0.576,0.176,1.046,0.349,1.409,0.517c0.363,0.168,0.66,0.352,0.888,0.55c0.498,0.448,0.748,0.95,0.748,1.508

		c0,0.528-0.184,1.001-0.552,1.42c-0.368,0.418-0.88,0.744-1.538,0.979c-0.658,0.235-1.383,0.352-2.176,0.352

		c-0.891,0-1.83-0.143-2.819-0.429c-0.989-0.286-1.935-0.688-2.837-1.206c-0.903-0.517-1.644-1.076-2.225-1.678

		c-0.964-1.026-1.532-2.171-1.703-3.433h-0.429v7.109h0.429c0.13-0.506,0.398-0.896,0.802-1.171

		c0.405-0.275,0.897-0.413,1.477-0.413c0.302,0,0.625,0.043,0.968,0.127c0.343,0.085,0.841,0.244,1.495,0.479

		c1.005,0.382,1.856,0.644,2.555,0.787c0.699,0.143,1.444,0.214,2.237,0.214c1.136,0,2.147-0.139,3.033-0.418

		c0.887-0.279,1.632-0.697,2.236-1.255c0.466-0.403,0.825-0.871,1.079-1.403c0.253-0.532,0.38-1.062,0.38-1.59

		c0-0.535-0.112-1.034-0.337-1.497c-0.225-0.462-0.541-0.866-0.949-1.211c-0.523-0.469-1.156-0.847-1.9-1.133

		c-0.743-0.286-1.924-0.616-3.542-0.991l-0.956-0.22l-0.6-0.132c-0.106-0.015-0.306-0.062-0.6-0.143

		c-1.078-0.235-1.918-0.433-2.519-0.594c-0.6-0.161-1.091-0.326-1.471-0.495c-0.38-0.169-0.672-0.345-0.877-0.528

		c-0.441-0.374-0.662-0.818-0.662-1.331c0-0.271,0.078-0.554,0.233-0.847c0.155-0.293,0.363-0.557,0.625-0.792

		c0.367-0.331,0.817-0.58,1.348-0.749c0.532-0.169,1.136-0.253,1.814-0.253c0.907,0,1.804,0.109,2.691,0.325

		c0.887,0.216,1.687,0.514,2.402,0.891c0.715,0.378,1.309,0.816,1.783,1.316c0.653,0.712,1.238,1.702,1.753,2.971h0.429v-5.271

		H68.65C68.373,12.949,67.915,13.371,67.278,13.371 M33.716,22.559c-0.825,1.665-1.671,2.799-2.537,3.4

		c-0.368,0.257-0.701,0.44-0.999,0.55c-0.298,0.11-0.701,0.191-1.207,0.243v0.429h6.974v-0.429

		c-0.327-0.015-0.578-0.042-0.754-0.083c-0.176-0.04-0.374-0.118-0.594-0.236c-0.335-0.169-0.607-0.418-0.815-0.748

		c-0.209-0.33-0.313-0.664-0.313-1.001c0-0.396,0.09-0.789,0.27-1.178l0.552-1.144h7.255l0.282,0.561

		c0.057,0.095,0.11,0.194,0.159,0.297c0.049,0.103,0.086,0.177,0.111,0.221c0.4,0.771,0.66,1.302,0.778,1.595

		c0.119,0.294,0.178,0.543,0.178,0.748c0,0.331-0.149,0.574-0.447,0.732c-0.299,0.158-0.77,0.237-1.416,0.237h-1.299v0.429h9.939

		v-0.429h-0.453c-0.466,0-0.87-0.061-1.213-0.182c-0.343-0.121-0.652-0.318-0.925-0.589c-0.274-0.271-0.521-0.616-0.742-1.033

		L39.611,11.5h-0.454L33.716,22.559z M41.302,21.954H34.5l3.358-6.855L41.302,21.954z M6,12.193h0.503

		c1.054,0,1.836,0.231,2.347,0.693c0.51,0.463,0.766,1.171,0.766,2.124v8.946c0,0.947-0.256,1.649-0.766,2.108

		c-0.511,0.458-1.293,0.688-2.347,0.688H6v0.429h12.587c1.577,0,2.946-0.159,4.106-0.478c1.16-0.319,2.053-0.774,2.678-1.365

		c0.625-0.59,0.938-1.282,0.938-2.074c0-1.438-1.038-2.567-3.114-3.389c-0.759-0.279-1.728-0.517-2.904-0.715v-0.044

		c0.923-0.228,1.638-0.43,2.145-0.606c0.506-0.176,0.98-0.396,1.421-0.66c1.103-0.653,1.655-1.426,1.655-2.322

		c0-0.55-0.175-1.065-0.527-1.546c-0.351-0.481-0.846-0.89-1.483-1.227c-0.515-0.287-1.226-0.515-2.132-0.688

		c-0.907-0.172-1.847-0.259-2.819-0.259H6V12.193z M15.743,19.357c1.479,0,2.603,0.091,3.37,0.275

		c0.768,0.183,1.418,0.514,1.949,0.991c0.703,0.601,1.054,1.412,1.054,2.432c0,1.196-0.433,2.119-1.299,2.768

		c-0.866,0.649-2.112,0.974-3.738,0.974h-3.848v-7.439H15.743z M17.533,12.193c1.356,0,2.359,0.258,3.009,0.776

		c0.65,0.517,0.974,1.312,0.974,2.383c0,2.384-1.524,3.576-4.572,3.576h-3.713v-6.734H17.533z"/>

</g>

</svg>

