<?xml version="1.0" encoding="utf-8"?>
<!-- Generator: Adobe Illustrator 21.0.0, SVG Export Plug-In . SVG Version: 6.00 Build 0)  -->
<!DOCTYPE svg PUBLIC "-//W3C//DTD SVG 1.1//EN" "http://www.w3.org/Graphics/SVG/1.1/DTD/svg11.dtd">
<svg version="1.1" id="Layer_1" xmlns="http://www.w3.org/2000/svg" xmlns:xlink="http://www.w3.org/1999/xlink" x="0px" y="0px"
	 viewBox="0 0 173 39" style="enable-background:new 0 0 173 39;" xml:space="preserve">
<style type="text/css">
	.st0{fill:#112351;}
</style>
<g>
	<path class="st0" d="M147.9,12.2h0.6c2.1,0,3.1,0.9,3.1,2.8V24c0,1.9-1,2.8-3.1,2.8h-0.6l0,0.4H167v-6.8h-0.5
		c-0.2,0.7-0.5,1.3-0.7,1.9c-0.2,0.5-0.5,1-0.7,1.4c-0.3,0.4-0.6,0.8-0.9,1.2c-0.6,0.6-1.2,1.1-2,1.5c-0.8,0.4-1.6,0.5-2.5,0.5h-4.4
		V15c0-1,0.3-1.7,0.8-2.1c0.5-0.5,1.3-0.7,2.3-0.7h1.2v-0.4h-11.7L147.9,12.2L147.9,12.2z M121.8,12.2h0.7c2.1,0,3.1,0.9,3.1,2.8
		v7.6c0,1.5,0.7,2.7,2,3.6c0.7,0.4,1.6,0.8,2.7,1c1.1,0.2,2.3,0.4,3.6,0.4c1.8,0,3.4-0.2,4.7-0.7c0.6-0.2,1.2-0.5,1.8-1
		c1-0.9,1.5-2.1,1.5-3.7V16c0-0.7,0.1-1.3,0.4-1.9c0.2-0.5,0.6-0.9,1.1-1.3c0.3-0.2,0.6-0.4,0.9-0.4c0.3-0.1,0.7-0.2,1.2-0.2v-0.4
		h-8.3v0.4c0.7,0,1.2,0.1,1.6,0.1c0.4,0.1,0.7,0.2,1,0.4c1.1,0.6,1.7,1.8,1.7,3.6v5.5c0,1.6-0.5,2.9-1.5,3.8
		c-0.5,0.5-1.2,0.8-2.1,1.1c-0.9,0.3-1.9,0.4-2.9,0.4c-1.2,0-2.2-0.2-3.1-0.5c-0.9-0.3-1.5-0.8-2-1.5c-0.5-0.6-0.7-1.4-0.7-2.3V15
		c0-0.9,0.3-1.6,0.8-2.1c0.5-0.5,1.3-0.7,2.3-0.7h1.4v-0.4h-11.9V12.2z M111,12.2c1,0,1.9,0.1,2.7,0.4c0.8,0.3,1.5,0.6,2.1,1.2
		c0.6,0.5,1.1,1.2,1.5,2c0.1,0.3,0.3,0.6,0.4,1.1c0.1,0.5,0.3,1,0.4,1.6h0.4v-6.6H99.8v0.4h0.4c1.1,0,1.8,0.2,2.4,0.7
		c0.5,0.5,0.8,1.2,0.8,2.1V24c0,0.9-0.3,1.6-0.8,2.1c-0.5,0.5-1.3,0.7-2.3,0.7h-0.4v0.4h11.3v-0.4h-1.1c-1,0-1.8-0.2-2.3-0.7
		c-0.5-0.5-0.8-1.2-0.8-2.1v-4.7h0.8c1.3,0,2.3,0.4,3,1.2c0.3,0.4,0.6,0.8,0.8,1.2c0.2,0.4,0.3,1.1,0.5,1.8h0.5v-8.8h-0.4
		c-0.3,1.5-0.7,2.6-1.4,3.2c-0.6,0.7-1.5,1-2.7,1H107v-6.7L111,12.2L111,12.2z M73.3,27.2h10.8v-0.4h-0.4c-1,0-1.8-0.2-2.3-0.7
		c-0.5-0.5-0.8-1.2-0.8-2.1v-4.4h9.2V24c0,0.9-0.3,1.6-0.8,2.1c-0.5,0.5-1.3,0.7-2.3,0.7h-0.4v0.4H97v-0.4h-0.5
		c-1,0-1.8-0.2-2.3-0.7c-0.5-0.5-0.8-1.2-0.8-2.1V15c0-0.9,0.3-1.6,0.8-2.1c0.5-0.5,1.3-0.7,2.3-0.7H97v-0.4H86.3v0.4h0.4
		c1.1,0,1.8,0.2,2.4,0.7c0.5,0.5,0.8,1.2,0.8,2.1v4.1h-9.2V15c0-0.9,0.3-1.6,0.8-2.1c0.5-0.5,1.3-0.7,2.3-0.7h0.4v-0.4H73.3v0.4h0.6
		c1,0,1.7,0.2,2.2,0.6c0.3,0.2,0.5,0.4,0.6,0.7c0.1,0.3,0.2,0.6,0.3,1.1V17v3.3v2.2V24c0,0.9-0.3,1.6-0.8,2.1
		c-0.5,0.5-1.3,0.7-2.3,0.7h-0.6L73.3,27.2L73.3,27.2z M67.3,13.4c-0.3,0-0.7-0.2-1.4-0.5c-2-0.9-3.9-1.4-5.8-1.4
		c-1.2,0-2.4,0.2-3.4,0.6c-1,0.4-1.8,0.9-2.4,1.6c-0.6,0.7-0.8,1.4-0.8,2.3c0,0.7,0.3,1.3,0.8,1.9c0.3,0.4,0.7,0.8,1.2,1
		c0.5,0.3,1.1,0.5,1.9,0.8c0.7,0.3,2.1,0.6,4,1.1l1.2,0.3c1,0.2,1.8,0.5,2.4,0.6s1,0.3,1.4,0.5s0.7,0.4,0.9,0.5
		c0.5,0.4,0.7,1,0.7,1.5c0,0.5-0.2,1-0.6,1.4c-0.4,0.4-0.9,0.7-1.5,1c-0.7,0.2-1.4,0.4-2.2,0.4c-0.9,0-1.8-0.1-2.8-0.4
		c-1-0.3-1.9-0.7-2.8-1.2c-0.9-0.5-1.6-1.1-2.2-1.7c-1-1-1.5-2.2-1.7-3.4h-0.4v7.1h0.4c0.1-0.5,0.4-0.9,0.8-1.2
		c0.4-0.3,0.9-0.4,1.5-0.4c0.3,0,0.6,0,1,0.1c0.3,0.1,0.8,0.2,1.5,0.5c1,0.4,1.9,0.6,2.6,0.8c0.7,0.1,1.4,0.2,2.2,0.2
		c1.1,0,2.1-0.1,3-0.4c0.9-0.3,1.6-0.7,2.2-1.3c0.5-0.4,0.8-0.9,1.1-1.4c0.3-0.5,0.4-1.1,0.4-1.6c0-0.5-0.1-1-0.3-1.5
		c-0.2-0.5-0.5-0.9-0.9-1.2c-0.5-0.5-1.2-0.8-1.9-1.1c-0.7-0.3-1.9-0.6-3.5-1l-1-0.2l-0.6-0.1c-0.1,0-0.3-0.1-0.6-0.1
		c-1.1-0.2-1.9-0.4-2.5-0.6c-0.6-0.2-1.1-0.3-1.5-0.5s-0.7-0.3-0.9-0.5C56.2,15.5,56,15,56,14.5c0-0.3,0.1-0.6,0.2-0.8
		c0.2-0.3,0.4-0.6,0.6-0.8c0.4-0.3,0.8-0.6,1.3-0.7c0.5-0.2,1.1-0.3,1.8-0.3c0.9,0,1.8,0.1,2.7,0.3c0.9,0.2,1.7,0.5,2.4,0.9
		c0.7,0.4,1.3,0.8,1.8,1.3c0.7,0.7,1.2,1.7,1.8,3h0.4v-5.3h-0.4C68.4,12.9,67.9,13.4,67.3,13.4 M33.7,22.6c-0.8,1.7-1.7,2.8-2.5,3.4
		c-0.4,0.3-0.7,0.4-1,0.5c-0.3,0.1-0.7,0.2-1.2,0.2v0.4h7v-0.4c-0.3,0-0.6,0-0.8-0.1c-0.2,0-0.4-0.1-0.6-0.2
		c-0.3-0.2-0.6-0.4-0.8-0.7c-0.2-0.3-0.3-0.7-0.3-1c0-0.4,0.1-0.8,0.3-1.2l0.6-1.1h7.3l0.3,0.6c0.1,0.1,0.1,0.2,0.2,0.3
		s0.1,0.2,0.1,0.2c0.4,0.8,0.7,1.3,0.8,1.6c0.1,0.3,0.2,0.5,0.2,0.7c0,0.3-0.1,0.6-0.4,0.7c-0.3,0.2-0.8,0.2-1.4,0.2h-1.3v0.4h9.9
		v-0.4h-0.5c-0.5,0-0.9-0.1-1.2-0.2c-0.3-0.1-0.7-0.3-0.9-0.6c-0.3-0.3-0.5-0.6-0.7-1l-6.9-13.4h-0.5L33.7,22.6z M41.3,22h-6.8
		l3.4-6.9L41.3,22z M6,12.2h0.5c1.1,0,1.8,0.2,2.3,0.7c0.5,0.5,0.8,1.2,0.8,2.1V24c0,0.9-0.3,1.6-0.8,2.1c-0.5,0.5-1.3,0.7-2.3,0.7
		H6v0.4h12.6c1.6,0,2.9-0.2,4.1-0.5s2.1-0.8,2.7-1.4c0.6-0.6,0.9-1.3,0.9-2.1c0-1.4-1-2.6-3.1-3.4c-0.8-0.3-1.7-0.5-2.9-0.7v0
		c0.9-0.2,1.6-0.4,2.1-0.6c0.5-0.2,1-0.4,1.4-0.7c1.1-0.7,1.7-1.4,1.7-2.3c0-0.6-0.2-1.1-0.5-1.5c-0.4-0.5-0.8-0.9-1.5-1.2
		c-0.5-0.3-1.2-0.5-2.1-0.7c-0.9-0.2-1.8-0.3-2.8-0.3H6V12.2z M15.7,19.4c1.5,0,2.6,0.1,3.4,0.3c0.8,0.2,1.4,0.5,1.9,1
		c0.7,0.6,1.1,1.4,1.1,2.4c0,1.2-0.4,2.1-1.3,2.8s-2.1,1-3.7,1h-3.8v-7.4L15.7,19.4L15.7,19.4z M17.5,12.2c1.4,0,2.4,0.3,3,0.8
		c0.6,0.5,1,1.3,1,2.4c0,2.4-1.5,3.6-4.6,3.6h-3.7v-6.7L17.5,12.2L17.5,12.2z"/>
</g>
</svg>
